<svg xmlns="http://www.w3.org/2000/svg" viewBox="0 0 298 345.1"><title>diagram</title><path d="M264.6,102.1l5.4-5.4c7.7-7.7,9.1-18.9,3.1-24.9s-17.2-4.6-24.9,3.1l-5.4,5.4a148.3,148.3,0,0,0-74.7-32V38.7h7.7c10.9,0,19.8-8.7,19.8-19.4S186.6,0,175.7,0H122.3c-10.9,0-19.8,8.7-19.8,19.4s8.9,19.4,19.8,19.4H130v9.6A149,149,0,1,0,264.6,102.1ZM149,306.3A110.2,110.2,0,1,1,259.2,196.1,110.2,110.2,0,0,1,149,306.3Z" style="fill:#dedede"/><path d="M149,69A126.5,126.5,0,1,0,275.5,195.5,126.5,126.5,0,0,0,149,69Zm0,237.2A110.2,110.2,0,1,1,259.2,196,110.2,110.2,0,0,1,149,306.2Z" style="fill:#d22856"/></svg>