<svg xmlns="http://www.w3.org/2000/svg" width="78.67" viewBox="0 0 78.672 63.789" enable-background="new 0 0 78.672 63.789" fill="#efefef"><path d="M34.967,7.063L30.713,0C28.272,1.495,0,12.207,0,39.617c0,7.231,0.336,24.172,18.9,24.172 c11.187,0,13.94-10.279,13.94-13.584c0-21.977-21.382-14.177-21.382-14.177C11.458,17.957,31.263,9.184,34.967,7.063z"/><path d="m78.67 7.06l-4.254-7.06c-2.44 1.495-30.713 12.207-30.713 39.617 0 7.231.337 24.17 18.9 24.17 11.187 0 13.939-10.279 13.939-13.584 0-21.977-21.381-14.177-21.381-14.177.002-18.07 19.806-26.844 23.509-28.965"/></svg>