<svg xmlns="http://www.w3.org/2000/svg" height="24.01" viewBox="0 0 49.945 24.007" enable-background="new 0 0 49.945 24.007" xmlns:xlink="http://www.w3.org/1999/xlink"><path fill="#fff" d="m1.137 0c-.627 0-1.137.428-1.137 1.01v1.981c0 .558.494 1.01 1.139 1.01h47.671c.628 0 1.138-.428 1.138-1.01v-1.981c0-.558-.494-1.01-1.138-1.01h-47.673m0 10c-.627 0-1.137.428-1.137 1.01v1.98c0 .557.494 1.01 1.139 1.01h47.671c.628 0 1.138-.428 1.138-1.01v-1.98c0-.558-.494-1.01-1.138-1.01h-47.673m0 10c-.627 0-1.137.429-1.137 1.01v1.981c0 .557.494 1.01 1.139 1.01h47.671c.628 0 1.138-.428 1.138-1.01v-1.981c0-.558-.494-1.01-1.138-1.01h-47.673" id="0"/><use xlink:href="#0"/></svg>