<svg xmlns="http://www.w3.org/2000/svg" viewBox="0 0 60 60"><title>icon-phone</title><rect width="60" height="60" style="fill:#e5e5e5"/><path d="M30,20c-3.5,0-7,.6-8.3,1.9a6.9,6.9,0,0,0-1.5,4v0.2a0.8,0.8,0,0,0,.8.8l3.2-.3h0.1a0.8,0.8,0,0,0,.8-0.8V24.2a0.9,0.9,0,0,1,.9-0.9h8a0.9,0.9,0,0,1,.9.9v1.6a0.8,0.8,0,0,0,.8.8h0.1L39,26.9a0.8,0.8,0,0,0,.8-0.8V25.9a6.9,6.9,0,0,0-1.5-4C37,20.6,33.5,20,30,20Zm0,10.7a1.6,1.6,0,1,0,1.6,1.6A1.6,1.6,0,0,0,30,30.7ZM28.8,27V26a1,1,0,1,0-2,0v1l-5.5,5.9a2.1,2.1,0,0,0-.6,1.5V36a1.6,1.6,0,0,0,1.6,1.6h0.4v1a1,1,0,1,0,2.1,0v-1H35.3v1a1,1,0,1,0,2.1,0v-1h0.4A1.6,1.6,0,0,0,39.4,36V34.4a2.1,2.1,0,0,0-.6-1.5L33.3,27V26a1,1,0,1,0-2.1,0v1H28.8ZM30,29a3.3,3.3,0,1,1-3.3,3.3A3.3,3.3,0,0,1,30,29Z" style="fill:#d22856"/></svg>