<svg xmlns="http://www.w3.org/2000/svg" viewBox="0 0 60 60"><title>icon-phone</title><rect width="60" height="60" style="fill:#e5e5e5"/><path d="M30.1,20.2c-3.5,0-7,.6-8.3,1.9a6.9,6.9,0,0,0-1.5,4v0.2a0.8,0.8,0,0,0,.8.8l3.2-.3h0.1a0.8,0.8,0,0,0,.8-0.8V24.3a0.9,0.9,0,0,1,.9-0.9h8a0.9,0.9,0,0,1,.9.9V26a0.8,0.8,0,0,0,.8.8h0.1l3.2,0.3a0.8,0.8,0,0,0,.8-0.8V26.1a6.9,6.9,0,0,0-1.5-4C37.2,20.8,33.6,20.2,30.1,20.2Zm0,10.7a1.6,1.6,0,1,0,1.6,1.6A1.6,1.6,0,0,0,30.1,30.8Zm-1.2-3.7v-1a1,1,0,1,0-2,0v1L21.3,33a2.1,2.1,0,0,0-.6,1.5v1.6a1.6,1.6,0,0,0,1.6,1.6h0.4v1a1,1,0,1,0,2.1,0v-1H35.5v1a1,1,0,0,0,2.1,0v-1h0.4a1.6,1.6,0,0,0,1.6-1.6V34.5a2.1,2.1,0,0,0-.6-1.5l-5.5-5.9v-1a1,1,0,1,0-2.1,0v1H28.9Zm1.2,2.1a3.3,3.3,0,1,1-3.3,3.3A3.3,3.3,0,0,1,30.1,29.2Z" transform="translate(-0.1)" style="fill:#d22856"/></svg>