<svg xmlns="http://www.w3.org/2000/svg" height="345.1" viewBox="0 0 298 345.097" enable-background="new 0 0 298 345.097"><path d="m264.57 102.06l5.355-5.355c7.717-7.717 9.124-18.938 3.126-24.935-5.997-5.997-17.217-4.59-24.934 3.127l-5.386 5.385c-20.961-16.985-46.619-28.402-74.73-31.98v-9.583h7.658c10.914 0 19.843-8.711 19.843-19.357s-8.928-19.357-19.842-19.357h-53.32c-10.913 0-19.842 8.711-19.842 19.357s8.929 19.357 19.842 19.357h7.658v9.583c-73.32 9.332-130 71.947-130 147.8 0 82.29 66.71 149 149 149 82.29 0 149-66.71 149-149 0-35.663-12.535-68.39-33.432-94.04m-115.57 204.21c-60.844 0-110.17-49.32-110.17-110.17s49.32-110.17 110.17-110.17c60.843 0 110.17 49.32 110.17 110.17s-49.32 110.17-110.17 110.17"/></svg>