<svg xmlns="http://www.w3.org/2000/svg" viewBox="0 0 146.3 40.4"><g fill="#fff"><path d="M71.9 18.7a1.3 1.3 0 0 1 1.3 -1.3h7.2c5.1 0 8.4 2.7 8.4 7.1 0 4.9-4.1 7.4-8.9 7.4H74.4v6.8a1.3 1.3 0 1 1 -2.5 0V18.7m8.1 11c3.7 0 6.2-2 6.2-5 0-3.2-2.4-4.9-6.1-4.9H74.4v9.9H80"/><path d="M93.6 18.5a1.3 1.3 0 1 1 2.5 0V38.8a1.3 1.3 0 1 1 -2.5 0V18.5"/><path d="M102.7,18.5a1.3,1.3,0,0,1,1.3-1.3h0.4a1.6,1.6,0,0,1,1.3.7l13.7,17.4v-17a1.2,1.2,0,1,1,2.5,0V38.8a1.1,1.1,0,0,1-1.2,1.2h-0.1a1.7,1.7,0,0,1-1.3-.8l-14-17.9V38.8a1.2,1.2,0,1,1-2.5,0V18.5h0Z"/><path d="M128.2,18.5a1.3,1.3,0,1,1,2.5,0V30.8l12.8-13.2a1.4,1.4,0,0,1,1-.5,1.3,1.3,0,0,1,1.2,1.3,1.3,1.3,0,0,1-.4.9l-8,7.9,8.6,10.6a1.4,1.4,0,0,1,.4.9,1.3,1.3,0,0,1-1.3,1.3,1.2,1.2,0,0,1-1-.6L135.6,29l-4.9,4.9v4.9a1.3,1.3,0,1,1-2.5,0V18.5h0Z"/><path d="M60.5,28L55.3,6.7C54.9,4.3,52.7,0,46.7,0a1.5,1.5,0,1,0,0,3c4.9,0,5.6,3.7,5.6,4.1l4.8,19.7H55a12,12,0,0,0-23.9,0H29.3a12,12,0,0,0-23.9,0H3.4L8.2,7.1C8.3,6.7,9,3,13.8,3a1.5,1.5,0,1,0,0-3c-6,0-8.2,4.3-8.6,6.7L0.1,28a1.4,1.4,0,0,0,1.4,1.8h4a12,12,0,0,0,23.9,0h1.8a12,12,0,0,0,23.9,0h4A1.4,1.4,0,0,0,60.5,28ZM26.3,29.8a8.4,8.4,0,1,1,.1-1.5A9,9,0,0,1,26.3,29.8Zm25.7,0a8.4,8.4,0,1,1,.1-1.5A9,9,0,0,1,52,29.8Z"/></g></svg>