<svg xmlns="http://www.w3.org/2000/svg" viewBox="0 0 26.943 34.09" enable-background="new 0 0 26.943 34.09" fill="#d22856"><path d="m13.62.017l-.148-.017-13.472 1.412v24.661l13.472 8.02 13.43-7.99.042-.026v-24.662l-13.324-1.395m11.399 12.11l-11.524-6.793v-.104l-.087.05-.088-.056v.109l-11.394 6.785v-8.971l11.547-1.212 11.547 1.212v8.98m-11.614-5.34l11.518 6.713-4.479 2.64-7.093-4.221-.013 1.415 5.904 3.513-.86.507-5.03-2.992-.013 1.415 3.827 2.275-.782.523-3.03-1.787-.013 1.413 1.852 1.091-1.8 1.081-11.356-6.751 11.371-6.835m-11.48 8.34l11.411 6.791.015 1.044-7.941-4.728-.015 1.416 7.979 4.796.017 1.076-7.972-4.741-.013 1.415 8.02 4.821.045.026 8.143-4.872v-1.268l-.011-.148v-3.761l3.415-2.036v10.02l-11.547 6.872-11.547-6.871v-9.852"/></svg>