<svg xmlns="http://www.w3.org/2000/svg" width="42.08" viewBox="0 0 42.084 47.041" enable-background="new 0 0 42.084 47.041"><g fill="#a4c639"><path d="m34.14 14.01h-26.2c-.009.11-.018.22-.018.333v18.755c0 1.926 1.457 3.49 3.316 3.627v7.43c0 1.594 1.291 2.885 2.885 2.885 1.593 0 2.885-1.291 2.885-2.885v-7.42h8.06v7.42c0 1.594 1.291 2.885 2.885 2.885 1.595 0 2.886-1.291 2.886-2.885v-7.434c1.858-.137 3.315-1.701 3.315-3.627v-18.751c0-.113-.004-.223-.013-.333"/><path d="m2.886 15.679c1.593 0 2.886 1.292 2.886 2.885v12.378c0 1.595-1.292 2.886-2.886 2.886-1.594 0-2.886-1.291-2.886-2.886v-12.378c0-1.594 1.292-2.885 2.886-2.885"/><path d="m39.2 15.679c1.595 0 2.886 1.292 2.886 2.885v12.378c0 1.595-1.291 2.886-2.886 2.886-1.594 0-2.885-1.291-2.885-2.886v-12.378c0-1.594 1.291-2.885 2.885-2.885"/><path d="m8.03 11.967h26.03c-.039-2.783-1.234-5.322-3.187-7.275l2.446-4.235c.082-.146.031-.331-.112-.415-.146-.084-.331-.034-.415.111l-2.372 4.107c-2.052-1.853-6.249-3.4-9.374-3.4-3.02 0-7.322 1.547-9.374 3.4l-2.372-4.108c-.083-.145-.269-.194-.415-.111-.145.084-.195.27-.111.415l2.445 4.235c-1.95 1.954-3.147 4.493-3.185 7.276m17.293-5.163c-.002-.805.664-1.46 1.488-1.462.826-.002 1.494.648 1.498 1.454 0 .002 0 .005 0 .008.002.805-.664 1.46-1.49 1.462-.823.002-1.493-.649-1.496-1.454 0-.002 0-.005 0-.008m-11.143 0c-.0001-.805.665-1.46 1.489-1.462.824-.002 1.494.648 1.497 1.454 0 .002 0 .005 0 .008.002.805-.664 1.46-1.488 1.462-.825.002-1.495-.649-1.498-1.454 0-.002 0-.005 0-.008"/></g></svg>