<svg xmlns="http://www.w3.org/2000/svg" viewBox="0 0 146.3 40.4"><title>logo-pink-color-desktop</title><path d="M71.9,18.7a1.3,1.3,0,0,1,1.3-1.3h7.2c5.1,0,8.4,2.7,8.4,7.1h0c0,4.9-4.1,7.4-8.9,7.4H74.4v6.8a1.3,1.3,0,1,1-2.5,0V18.7h0Zm8.1,11c3.7,0,6.2-2,6.2-5h0c0-3.2-2.4-4.9-6.1-4.9H74.4v9.9H80Z" transform="translate(0)" style="fill:#fff"/><path d="M93.6,18.5a1.3,1.3,0,1,1,2.5,0V38.8a1.3,1.3,0,1,1-2.5,0V18.5Z" transform="translate(0)" style="fill:#fff"/><path d="M102.7,18.5a1.3,1.3,0,0,1,1.3-1.3h0.4a1.6,1.6,0,0,1,1.3.7l13.7,17.4v-17a1.2,1.2,0,1,1,2.5,0V38.8a1.1,1.1,0,0,1-1.2,1.2h-0.1a1.7,1.7,0,0,1-1.3-.8l-14-17.9V38.8a1.2,1.2,0,1,1-2.5,0V18.5h0Z" transform="translate(0)" style="fill:#fff"/><path d="M128.2,18.5a1.3,1.3,0,1,1,2.5,0V30.8l12.8-13.2a1.4,1.4,0,0,1,1-.5,1.3,1.3,0,0,1,1.2,1.3,1.3,1.3,0,0,1-.4.9l-8,7.9,8.6,10.6a1.4,1.4,0,0,1,.4.9,1.3,1.3,0,0,1-1.3,1.3,1.2,1.2,0,0,1-1-.6L135.6,29l-4.9,4.9v4.9a1.3,1.3,0,1,1-2.5,0V18.5h0Z" transform="translate(0)" style="fill:#fff"/><path d="M98.5,9.9a3.6,3.6,0,0,1-3.6-3.6,3.6,3.6,0,0,1-3.6,3.6,3.6,3.6,0,0,1,3.6,3.6A3.6,3.6,0,0,1,98.5,9.9Z" transform="translate(0)" style="fill:#d22856"/><path d="M43.1,19.3h0.7a2.5,2.5,0,0,0-2.1-1.2,2,2,0,0,1-1.9-1.4l-2.1.8h0.2a2,2,0,0,1,2,2v0.3A9,9,0,0,1,43.1,19.3Z" transform="translate(0)" style="fill:#fff"/><path d="M60.5,28L55.3,6.7C54.9,4.3,52.7,0,46.7,0a1.5,1.5,0,1,0,0,3c4.9,0,5.6,3.7,5.6,4.1l4.8,19.7H55a12,12,0,0,0-5.3-8.5,2.5,2.5,0,0,0-1.5,2.3v0.3A9,9,0,1,1,35,24.4a2,2,0,0,1-1.9-2,0.7,0.7,0,0,0-.2-0.5,12,12,0,0,0-1.8,5H29.3a12,12,0,0,0-23.9,0H3.4L8.2,7.1C8.3,6.7,9,3,13.8,3a1.5,1.5,0,1,0,0-3c-6,0-8.2,4.3-8.6,6.7L0.1,28a1.4,1.4,0,0,0,1.4,1.8h4a11.9,11.9,0,0,0,.4,1.8A0.7,0.7,0,0,0,6,31.3a2,2,0,0,1,2-2H8.5a8.3,8.3,0,0,1-.1-1,9,9,0,1,1,9,9A9,9,0,0,1,12,35.6a2,2,0,0,1-1.3.5,0.7,0.7,0,0,0-.7.7,2,2,0,0,1-.2.8,12,12,0,0,0,19.5-7.8h1.8a12,12,0,0,0,23.9,0h4A1.4,1.4,0,0,0,60.5,28Z" transform="translate(0)" style="fill:#fff"/><path d="M50.7,16.1a4.5,4.5,0,0,1-4.5-4.5,4.5,4.5,0,0,1-4.5,4.5,4.5,4.5,0,0,1,4.5,4.5A4.5,4.5,0,0,1,50.7,16.1Z" transform="translate(0)" style="fill:#d22856"/><path d="M37.9,19.6a2.7,2.7,0,0,1-2.7-2.7,2.7,2.7,0,0,1-2.7,2.7,2.7,2.7,0,0,1,2.7,2.7A2.7,2.7,0,0,1,37.9,19.6Z" transform="translate(0)" style="fill:#d22856"/><path d="M10.7,34.1A2.7,2.7,0,0,1,8,31.3a2.7,2.7,0,0,1-2.7,2.8A2.7,2.7,0,0,1,8,36.8,2.7,2.7,0,0,1,10.7,34.1Z" transform="translate(0)" style="fill:#d22856"/></svg>
