<svg xmlns="http://www.w3.org/2000/svg" viewBox="0 0 46.21 56.753" enable-background="new 0 0 46.21 56.753"><path fill="#fff" d="m38.593 30.15c.081 8.59 7.535 11.447 7.617 11.483-.062.202-1.19 4.073-3.927 8.07-2.365 3.457-4.82 6.901-8.688 6.973-3.799.07-5.02-2.253-9.365-2.253-4.344 0-5.702 2.182-9.298 2.32-3.733.142-6.576-3.739-8.961-7.184-4.875-7.05-8.598-19.91-3.597-28.593 2.484-4.313 6.925-7.04 11.743-7.114 3.666-.069 7.126 2.466 9.366 2.466 2.241 0 6.444-3.049 10.865-2.601 1.85.077 7.04.747 10.38 5.629-.269.171-6.197 3.623-6.135 10.802m-7.14-21.09c1.982-2.4 3.316-5.739 2.952-9.06-2.857.115-6.312 1.904-8.36 4.302-1.837 2.123-3.445 5.521-3.01 8.778 3.184.246 6.436-1.619 8.419-4.02"/></svg>