<svg xmlns="http://www.w3.org/2000/svg" viewBox="0 0 49.9 24"><title>menu-burger</title><path d="M1.1,0A1.1,1.1,0,0,0,0,1V3A1.1,1.1,0,0,0,1.1,4H48.8a1.1,1.1,0,0,0,1.1-1V1a1.1,1.1,0,0,0-1.1-1H1.1Zm0,10A1.1,1.1,0,0,0,0,11v2a1.1,1.1,0,0,0,1.1,1H48.8a1.1,1.1,0,0,0,1.1-1V11a1.1,1.1,0,0,0-1.1-1H1.1Zm0,10A1.1,1.1,0,0,0,0,21v2a1.1,1.1,0,0,0,1.1,1H48.8a1.1,1.1,0,0,0,1.1-1V21a1.1,1.1,0,0,0-1.1-1H1.1Z" style="fill:#fff"/><path d="M1.1,0A1.1,1.1,0,0,0,0,1V3A1.1,1.1,0,0,0,1.1,4H48.8a1.1,1.1,0,0,0,1.1-1V1a1.1,1.1,0,0,0-1.1-1H1.1Zm0,10A1.1,1.1,0,0,0,0,11v2a1.1,1.1,0,0,0,1.1,1H48.8a1.1,1.1,0,0,0,1.1-1V11a1.1,1.1,0,0,0-1.1-1H1.1Zm0,10A1.1,1.1,0,0,0,0,21v2a1.1,1.1,0,0,0,1.1,1H48.8a1.1,1.1,0,0,0,1.1-1V21a1.1,1.1,0,0,0-1.1-1H1.1Z" style="fill:#fff"/></svg>